<svg viewBox="0 0 24 24" fill="none" xmlns="http://www.w3.org/2000/svg">
  <defs>
    <linearGradient id="logoGradient" x1="0%" y1="0%" x2="100%" y2="100%">
      <stop offset="0%" stop-color="#000000"/>
      <stop offset="100%" stop-color="#fb57ff"/>
    </linearGradient>
  </defs>
  <!-- Top bar with rounded bottom -->
  <path d="M3 4 L21 4 Q22 4 22 5 L22 7 Q22 8 21 8 L3 8 Q2 8 2 7 L2 5 Q2 4 3 4 Z" fill="url(#logoGradient)"/>
  <!-- Middle bar with rounded bottom -->
  <path d="M3 10 L21 10 Q22 10 22 11 L22 13 Q22 14 21 14 L3 14 Q2 14 2 13 L2 11 Q2 10 3 10 Z" fill="url(#logoGradient)"/>
  <!-- Bottom bar with rounded bottom - wallet shape -->
  <path d="M3 16 L21 16 Q22 16 22 17 L22 19 Q22 21 21 21 L3 21 Q2 21 2 19 L2 17 Q2 16 3 16 Z" fill="url(#logoGradient)"/>
  <!-- Wallet circle accent -->
  <circle cx="18" cy="18.5" r="1.2" fill="#000000" opacity="0.3"/>
</svg>

